<svg width="52" height="52" viewBox="0 0 52 52" fill="none" xmlns="http://www.w3.org/2000/svg">
<g clip-path="url(#clip0_14_3959)">
<path d="M52 26.2023C52 24.3951 51.8568 22.578 51.5512 20.8H27.04V31.038H41.0764C40.494 34.34 38.1005 37.6639 35.36 39.52L35.882 45.76L43.68 45.76C48.5975 41.1295 52 34.2911 52 26.2023Z" fill="#4285F4"/>
<path d="M26.4066 52C33.4347 52 39.3616 49.7214 43.68 45.7883L35.36 39.52C33.0237 41.0894 29.9302 41.8174 26.4161 41.8174C19.6178 41.8174 13.5082 37.2887 11.44 31.2H3.12V37.8276C7.54368 46.5163 16.5538 52 26.4066 52Z" fill="#34A853"/>
<path d="M11.44 31.2C10.248 28.0358 10.768 23.9643 11.96 20.8L12.48 14.56L3.12 14.04C-0.916263 21.2392 -1.00904 30.2409 3.02723 37.44L11.44 31.2Z" fill="#FBBC04"/>
<path d="M26.9082 10.1788C30.7034 10.1221 34.3713 11.5017 37.1199 14.0342L44.72 6.69195C39.9076 2.3263 33.5204 -0.0738627 26.9082 0.00173302C16.8432 0.00173302 7.63897 5.34649 3.12 14.04L11.9623 20.8C14.0653 14.7051 19.9634 10.1788 26.9082 10.1788Z" fill="#EA4335"/>
</g>
<defs>
<clipPath id="clip0_14_3959">
<rect width="52" height="52" fill="white"/>
</clipPath>
</defs>
</svg>
