<svg width="116" height="116" viewBox="0 0 116 116" fill="none" xmlns="http://www.w3.org/2000/svg">
<g clip-path="url(#clip0_351_387)">
<path d="M58.0002 0C26.0181 0 0 26.0177 0 58.0021C0 89.9842 26.0177 116 58.0002 116C89.9838 116 116 89.9846 116 58.0021C116 26.0177 89.9838 0 58.0002 0ZM20.7557 96.9325C10.4925 87.1111 4.08102 73.2937 4.08102 58.0021C4.08102 57.6793 4.09911 57.3645 4.10488 57.0478L19.1233 62.219L29.6316 89.3073L20.7557 96.9325ZM33.0511 17.3708L60.3203 7.55981L79.8415 25.7707L63.8006 48.7368L33.9597 43.0657L33.0511 17.3708ZM94.0133 98.0862C92.8854 99.1025 91.7136 100.069 90.5064 100.987L68.089 110.564L53.4051 95.2605L72.4648 73.8098L97.9269 76.9422L94.0133 98.0862ZM101.195 25.7607C107.93 34.7597 111.923 45.9226 111.923 58.0017C111.923 58.3246 111.903 58.6455 111.897 58.9661L108.859 58.1972L99.6886 32.3353L101.195 25.7607Z" fill="white"/>
</g>
<defs>
<clipPath id="clip0_351_387">
<rect width="116" height="116" fill="white"/>
</clipPath>
</defs>
</svg>
