<svg width="116" height="116" viewBox="0 0 116 116" fill="none" xmlns="http://www.w3.org/2000/svg">
<g clip-path="url(#clip0_351_394)">
<path d="M43.8204 27.257C43.8204 15.7257 47.9758 6.17015 51.3002 0.370147C43.576 1.26348 36.3103 3.67932 29.81 7.31021C13.2964 37.4979 28.3417 65.2982 37.6076 78.0383C47.1779 71.5205 52.2694 62.2154 54.0398 58.4531C51.0088 54.1733 43.8204 42.4242 43.8204 27.257Z" fill="white"/>
<path d="M59.7163 0.00756836C57.4831 3.18103 52.0007 11.9941 50.9155 23.3399C64.3948 21.995 77.3739 23.4987 88.6812 27.7434C98.9363 31.5929 107.628 37.534 114.647 45.4662C109.026 20.0171 86.6448 0.791248 59.7163 0.00756836Z" fill="white"/>
<path d="M50.8387 30.2954C51.6937 41.8986 57.2033 50.9208 59.5783 54.3185C64.7951 53.8332 78.5704 53.4789 91.7117 61.0658C101.696 66.8302 107.893 75.204 111.254 80.9827C114.194 74.2007 115.874 66.7516 116 58.9307C98.1148 29.5149 66.507 28.6399 50.8387 30.2954Z" fill="white"/>
<path d="M60.3962 61.1816C58.2083 65.9421 51.6274 78.0494 38.4863 85.636C28.5132 91.3937 18.1743 92.5775 11.4882 92.6012C16.0152 98.6693 21.7003 103.824 28.2124 107.738C62.6152 106.946 79.1713 80.0182 85.5705 65.6245C75.0947 60.5635 64.5267 60.8238 60.3962 61.1816Z" fill="white"/>
<path d="M91.5562 69.1689C85.9814 81.515 78.1895 92.0035 68.8598 99.6735C60.3982 106.63 50.907 111.187 40.5273 113.299C46.0457 115.047 51.9173 115.993 58.0061 115.993C78.8286 115.993 97.1206 104.962 107.354 88.4399C105.715 84.9064 100.824 75.7711 91.5562 69.1689Z" fill="white"/>
<path d="M16.4774 46.5423C14.6874 35.7584 15.4801 25.2817 18.8228 15.2552C7.26042 25.866 0 41.0935 0 57.9864C0 67.9343 2.51847 77.3047 6.94935 85.4954C10.822 85.8423 21.187 86.1787 31.5468 81.4501C23.6423 70.4494 18.4551 58.4572 16.4774 46.5423Z" fill="white"/>
</g>
<defs>
<clipPath id="clip0_351_394">
<rect width="116" height="116" fill="white"/>
</clipPath>
</defs>
</svg>
